<?xml version="1.0" encoding="utf-8"?>
<!-- Generator: Adobe Illustrator 21.1.0, SVG Export Plug-In . SVG Version: 6.00 Build 0)  -->
<svg version="1.1" xmlns="http://www.w3.org/2000/svg" xmlns:xlink="http://www.w3.org/1999/xlink" x="0px" y="0px"
	 viewBox="0 0 990 990" style="enable-background:new 0 0 990 990;" xml:space="preserve">
<style type="text/css">
	.st0{display:none;}
	.st1{fill:#6ED397;}
	.st2{fill:none;stroke:#EAEAEA;stroke-width:1.5;stroke-miterlimit:10;}
	.st3{fill:#0DAAF9;}
	.st4{fill:#CEAC02;}
</style>
<g id="Layer_1">
	<g id="Layer_1_1_" class="st0">
		
			<image style="display:inline;overflow:visible;enable-background:new    ;" width="1020" height="911" xlink:href="B5E8C998.jpeg"  transform="matrix(0.9715 0 0 0.9714 -0.1373 51.4068)">
		</image>
	</g>
	<g id="Layer_2">
		<path class="st1" d="M715.5,334.5l-3.6,5c0,0-2.3,7.7-2.6,8.2s-0.3,0.5-0.3,0.5l7.1,3.9l6.3-8.8V337l-5.5-2.5H715.5L715.5,334.5z"
			/>
		<polygon class="st1" points="693.4,412.5 693.4,424.9 718.6,442.2 740.6,445 755.3,439.4 763.9,443.3 763.9,447.4 767.9,450.3 
			776,446 782.9,450.3 785.3,457.6 788.3,459.7 788.3,449 781.9,442.2 773.8,436.1 773.8,434.2 766.3,428.1 770.1,419.2 765.8,408 
			770.6,404 783.2,409.3 786.9,419.2 783.7,427 800.6,445.2 815.1,456 832,446 832,433.7 825.8,431.8 811.3,439.4 805.7,436.1 
			805.2,408.3 779.4,396.7 767.9,387.4 748.1,393.8 738.4,400.8 725.3,401.8 		"/>
		<polygon class="st1" points="312.5,347.4 326.2,336.5 356.5,335.7 347.6,368.2 		"/>
		<polyline class="st2" points="536.4,199.3 544.4,211.4 543,247.6 558.9,256.7 561.5,270.6 578.5,287.6 576.8,286 		"/>
		<path class="st2" d="M385.4,341.5c0,0-7.7,4.8-7,8.5s5.3,8.5,4.4,10.6c-0.9,2-9.4,14.3-9.2,20.9s-4.3,33.4-7,34.7
			c-2.7,1.4-2.7,1.4-2.7,1.4s-43.9-2.6-46.3,0s-30.8,33.9-34.5,42.5c-3.7,8.7-10.2,16.7-18.2,9.9c-8-6.8-17.7-1.4-18.9-0.5
			s-11.9,1.5-7.1,20.1s13.1,20.1,12.4,22.5c-0.7,2.4-19.8,5.6-21.8,9c-11.9,19.9,14.8,18,23.3,17.4c0,0,17.5,5.4,20.6,10.4
			c3.1,4.9,3.1,4.9,3.1,4.9s13.3,4.3,13.4,7.5s0.2,3.2,0.2,3.2s6.5,3.9,11.2,4.1c4.8,0.2,4.8,0.2,4.8,0.2s10,8.2,11.6,7.8
			s1.5-0.3,1.5-0.3s7.3-10.9,10.9-8.7s26.4,15.1,28.4,18.9c2,3.7,7.1,15,7.1,15"/>
		<path class="st2" d="M209,375.4c0,0,25.7,18.3,24.7,24.3s-3,23.7-1.7,25.7s9,13.1,9.3,14c0.3,1,3.7,9,3.7,9s17.3,8.3,21.7,10.3
			c4.3,2,4,13.8,4,13.8"/>
		<path class="st2" d="M249,54.7c0,0,4,6.9,4,8.7c0,1.8-0.4,11.4,1.1,12c1.6,0.6,1.6,0.6,1.6,0.6s4.9,1.8,5.6,3.8s6.5,9.3,10.4,12.4
			c4,3.1,4,3.1,4,3.1s0.3,11,2.8,13.3s9.9,4.5,11.9,8s2,3.5,2,3.5s7.1,3.1,16.9,4.2c9.9,1.1,24.9,1.8,28.8-7.2
			c2.1-4.9,2.1,5.9,2.1,5.9s-8.9,7.9-8.5,10.4s12.6,0.7,17.4-1.8s7.2,1.3-5.6,9.3c-2.3,1.4,3.1,8.9,3.2,9.9s8.7,9.5,8.7,12.1
			s2.8,19.1,1.6,20.7c-1.3,1.7-1.3,1.7-1.3,1.7s-2,18.5-0.6,20.9s11.1,23.1,10.9,25c-0.3,1.8-12.7,7.2-12.7,10.4s5.2,7.3,5.2,9.6
			s0,2.3,0,2.3s13,48.6,14.3,51.3s6.5,12.5,7.8,12.9s15.6,8.3,26,5.9c3.1-0.7,21,12.6,21,12.6"/>
		<path class="st1" d="M542.8,340l-3.5,3.8l0.8,9.1l-7.2,8.7l24.6,25.2l10,4.4c0,0,2,2.6,2.3,3.5c0.4,0.9,0.4,0.9,0.4,0.9l0,0
			l-0.4,43.8c0,0,14.3-9.9,15.3-12.9c1-2.9,1-2.9,1-2.9l-0.5-8.2l-3.6-4.3l1.3-17.3l8.5-4.1l-6-11.4l2-17.5l-23.7-25.3l-8.2,9.1
			l-4.7-4.1L542.8,340z"/>
		<path class="st2" d="M11.8,92.8c0,0,3.9,1.8,5,5c1.1,3.2,1.1,3.2,1.1,3.2s19.4,18.7,20.5,23c1.1,4.3,12.2,19.7,15.1,29
			s4.3,9,4.7,14s0.4,5,0.4,5l0,0c0,0,4.3,7.5,0,18.6c-3.6,9.3-3.6,14-3.6,14s9.3,11.5,15.8,13.6c6.5,2.2,66.7,28.3,66.7,34.4
			c0,6.5-1.8,8.2-1.8,8.2s-6.1,1.1-6.8,3.2c-0.7,2.2-6.5,10-4.3,11.1s8.6,3.6,9.3,7.2s0.7,3.6,0.7,3.6l0,0c0,0,3.6,11.8,5.4,14
			c1.8,2.2,3.9,2.9,5.7,6.1s7.4,13.4,8.6,14c0,0,21,5.4,22.4,7.9s-2.4,14.9,0,16.9s14.3-2.4,16.4,2.1s-8.3,6.3-5,11.9
			c3.3,5.7,11.5-5.3,14.4,1.1s-10.2,15.3,11.4,15.3c8.9,0,18-4.5,20.5-3.6s6,4.3,10.1,3.6s61.9-26.9,81.5-42.5
			c61.9-0.1,55-7.5,58.9-2.4s-0.6,9.6,3.4,11.5s22.9-12.3,27.5-8.4c3.7,3.2,8.8,7.1,25.3,0.2c2.1-0.2,16.4,2.4,20.9,1.7
			s20.7-6.4,25-18.8c4.4-12.4,13.9-7.4,14.5-11.5s-7.1-8.1-7.7-12.7s2.6-5.6,2.4-7.6s-3.4-5.6-1.5-12.2s1.9-6.6,1.9-6.6
			s2.1-6.6,1.7-14.8s55.6-73,55.6-73L555,152l37.8-37.7c0,0-1.6-10.6-5.4-17.1"/>
		<path class="st2" d="M574,463.1c0,0,0-2.6-0.1-3.1c-0.3-4.9-3.2-9.9-3.2-9.9s-0.7-1.3-3.2-5.2s0-48.2-1-50.9s-8.8-3.5-8.8-3.5
			l-32.4-32.6l-0.8-21.5l10.9-11.9l22.1,0.2l33.1,34.4l-1.1,19.6l12,21.7l-12.7,16.3l-1.1,13.2l-10.8,10l-2.4,20.6"/>
		<path class="st2" d="M199.5,607.4c7-7.5,7-7.5,7-7.5s41-15.6,46.5-15.6s29.6,5.7,32.5,7.8s12.5,11.4,15.8,11.4
			c3.4,0,13.5-1,16.9,1.6s20.3,13,26.8,13.2c6.5,0.3,17.1-14.5,19.7-15.6c2.6-1,9.9-2.6,9.9-2.6s11.9-13.4,11.6-30.9
			c-0.1-8.5,10.4-25.5,12-27.7s19.2-9.4,27.4-26.1c8.2-16.7,23.2-28.1,26.5-28.8s12,0,14.4,3s6.9,6,8.1,5.2s6.8-6.8,10.4-7
			c3.6-0.1,12.7,1.4,12.7,1.4s2.3-9.4,4-10.1s23.9,0.6,28.5-1.3s31.7-13.7,38.8-14.8s7.1-1.2,7.1-1.2s14,4.2,20.2,6.2s6.2,2,6.2,2
			s11,17.3,12.1,19.5c1.2,2.2,7.8,7.3,7.8,7.3s1,16.7-2.3,19s-17.9,1.2-18.4,18.4c-0.3,8.9,13.2,6.2,21.6,18.9
			c1.2,1.8-4.9,18.9-4.9,18.9s16.1,53.7,15.7,58.4c-0.4,4.6-4.8,6.8-3.6,9.7s7.3,10.7,7.6,13s-0.7,9.1,0.6,10.1s1.3,1,1.3,1
			s30.3,31.4,33.6,34.1c3.3,2.7,22.6-0.1,25.8,1.9s3.2,2,3.2,2s7.8,7.3,6.3,13.4s-10.8,14.6-10.2,17.6s0.9,6.9,0.9,6.9
			s5.9,3.7,5.6,5.6c-0.3,1.9-3.9,8.6-3.9,10.4s0,1.7,0,1.7s4.6,10.5,4.6,14.3s-5.5,7.3-3.6,10.2s1.9,2.9,1.9,2.9s15.3,9.1,17.3,12
			s2,2.9,2,2.9l4.5,7.9c0,0-0.4,2.6-3,3.2c-2.6,0.6-8.8-12.4-11.4-13.8c-2.6-1.4-10.8-5.6-12.2-4s-3.9,5.5-0.9,7.8
			s10.5,5.3,12.2,8.4c1.7,3,1.7,3,1.7,3s0.9,2.4-2.6,4.3c-3.5,1.9-3.5,1.9-3.5,1.9s-2.4,7.5-0.9,9.2s1.3,1,1.6,1.7s3.2,2.2,2.6,7.3
			s3.5,9.9,3.2,12.4c-0.3,2.4-0.3,2.4-0.3,2.4l0,0c0,0-5.2,6.6-3.6,9.9c1.6,3.3,1.6,3.3,1.6,3.3s9.1,1.6,9.5,4.2
			c0.4,2.6-8.1,5.9-9.9,12c-1.9,6.1-3.5,12.8-6.6,14c-3.2,1.2-9.7,4-12.1,7.6c-2.4,3.6-4.2-5.9-2.3-8.6c1.9-2.7,14.3-3.5,14-11.1
			s-10.1-1.7-10.1-1.7s-6.2,3.3-5-14.4s0-18.4-2.2-15c-2.2,3.5-2.2,3.5-2.2,3.5l0,0c0,0,0.7,6.6-3,10.8s1.3,5.8,1.2,9.7
			s-5.2,8.9-5.5,13.5s-1.6,7.1-4.5,9.5s-1.3,7.3-1.3,12s-0.7,12.7-5.2,16.7"/>
		<path class="st2" d="M344.7,619.8c0,0-4.3,6.8-3.5,9.3s2.5,8,11,6.8s-3,9.8,0,14.7c3,4.8,10.7,12.8,12.2,16.2
			c1.5,3.3,11.5,13.3,11.8,17.2c0.3,3.8-2.3,15.7-0.7,18.3c1.7,2.7,7.8,10.3,8.5,13s0.7,2.7,0.7,2.7s6.2,0.5,8.5,2.7
			s2.3,2.2,2.3,2.2s3.5,2.5,2.5,7.3s0,8.7,6,8.3s13-1.2,14.5,1.2c1.5,2.3,0.3,7.5,5.2,10c4.8,2.5,8.8,9.8,12.7,8
			c3.8-1.8,3.2-9.5,5.8-12c2.7-2.5,1.7-3.2,9-3.7s7.3-0.5,7.3-0.5s2.2-2.5,5.8-4c3.7-1.5,11.8-2.2,16.7-4.7s16,1,20.5,1.2
			s5.5-2.8,5-6.5s-0.5-3.7-0.5-3.7s2.7-1.5,7.7,2.7s17,15.5,21.3,14.7s8.7-10.8,9.2-17.7s7.8-16.8,13.2-16.2
			c5.3,0.7,18.2-0.2,23.8-3.2c5.7-3,24.7-3.7,29.8-0.3c5.2,3.3,23.3,6.8,24.2,12.2c0.8,5.3,21.2,21.5,24.8,19.5s5.3-10.3,7.3-20.8
			s8.3-15.6,8.3-15.6"/>
		<path class="st2" d="M599,468.3c0,0-3.7-9.3,10.9-13.3c14.5-4,6.3-6.7,22-0.8c15.7,6,16.5-1.1,24.9-2s12.8,7.2,15.9,5.5
			c3.1-1.7,2.9-15.6,6-15.6s3.5,6.4,7.9,8.7s14.2,6.7,17.7,4.4c3.5-2.4,0.9-6.5,10.2-1.6s-1.7,8.4,4.9,11.5s13.6-1.1,15,4
			c1.4,5,7.6,9.8,5.2,12.4c-2.4,2.6-7.3,6.1-11,5.3c-3.7-0.8-4.1-4.5-8.1,0.1s-1.1,8.6-5.8,10.7s-13.3,3.5-14.1,6.6
			s-1.2,10.2,4,14.1c5.2,3.8,4.7,8.3,7,12.2c2.3,4,6.7,4.9,6.7,8.6s6.1,5.3,7.2,10.7c1.1,5.3,4.4,5.2,9.3,7.6
			c4.9,2.4,11.2,3.4,12.8-0.5c1.7-3.8,0.5-14.7,4.3-13.1c3.8,1.5,3.5,0.8,4.9,5.8s2.9,6.1,3.1,9.9c0.2,3.8,1.2,9.9,3.4,12.4
			c2.1,2.4,3.5,8.6,8.6,8.3c5-0.3,13.3-4,14.8-2s-6.1,7-7.3,11.9s6.2,10.2,7.5,11.6c1.3,1.4-8.5,21.5-6.3,25.7
			c2.1,4.1,14.4,17,21.7,22.5s12.4,8.3,13.4,13c1.1,4.7-0.9,11-4,14.4s-3.1,3.4-3.1,3.4s-9.1,5,8.7,14.7
			c11.2,6.1,12.8,9.5,12.5,10.6c-1.2,4.5-11.9,11.1-12.4,14.3c0,0-0.7,10.8-1.3,12.1c-0.6,1.4-18.3,10-19.3,13.7
			c-0.9,3.8-5.6,21.7-13.6,20.6c-8-1.1-27-5.3-28.5-8.6s0-11.2-0.9-13.9s-11.2-12.6-16.4-13.4c-5.2-0.8-12.1,4.8-12.7,6.4
			c-0.6,1.6,0.4,4.6-1,4.6s-1.4,0-1.4,0s-6.1-8.6-22.8-7.5"/>
		<path class="st2" d="M557.7,387.9c0.9-0.9,6.4-12.2,8.8-7.6c2.4,4.6,12.4,3.5,13.3,2.5s5.3-9.4,5.3-9.4l-33.3-34.6h-10l-3.9,4.4
			l0.7,9l-8,9.2"/>
		<polyline class="st2" points="535,355.3 532.9,353.6 532.9,341 540.5,332.9 552.3,332.9 556,335.5 		"/>
		<line class="st2" x1="560.7" y1="330.5" x2="552.8" y2="338.8"/>
		<line class="st2" x1="563.5" y1="333.7" x2="555.4" y2="341.6"/>
		<line class="st2" x1="526.5" y1="347.2" x2="537" y2="347.2"/>
		<line class="st2" x1="530.1" y1="332.6" x2="539.4" y2="341.5"/>
		<line class="st2" x1="532.9" y1="329.6" x2="542.1" y2="338.4"/>
		<polygon class="st3" points="558.1,351.7 554.2,352.3 551.5,355 551.2,357.7 563.5,369.9 568,369.2 569.8,367.3 569.8,363.3 		"/>
		<path class="st2" d="M502.3,305c0,0,19.7,6.7,32.2,19.5"/>
		<path class="st2" d="M563.5,330.5l7.9-9.1l2.6-21.2c0,0,14-43.5,20.4-46.7c2.7-1.4,12,10.4,12,10.4s1.9-13.1,7.7-21.3
			c0,0,10.7-14.7,18.7-19.7s42-23.3,48-24.7c0,0,3.3,3.6,4.5,3.3s8.6-4.2,9.1-6.3s-9.1-9.1-7.4-12.8s6.3-6.6,5.7-9.9
			c-0.6-3.3-0.6-3.3-0.6-3.3l-5.9-3.7l19-8c0,0,3.4-6.6,5.4-9.1c1.9-2.5,1.9-2.5,1.9-2.5s4.6-7.1,0-8.9c-4.6-1.8-4.6-1.8-4.6-1.8
			s-12.9,0-12.8-1.7c0.1-1.7,8.8-7.5,10.1-14.5"/>
		<path class="st2" d="M550.9,181.6c0,0,0.9,10,7.6,9.8c6.7-0.2,27.8-7.7,35.3,2.9c7.4,10.6,17.5,18.2,17.5,18.2s-0.9,9.8,5,14.9
			c5.9,5.1,5.9,5.1,5.9,5.1s28.6,24,31,19.6c1.9-3.4,0.5-6.2,0.5-6.2s-6-9-2.2-8.6c6.7,0.7,17.3,5,17.3,5s11.5,1.2,15.1-1.2
			c0,0,8.1,0.2,7.2,4.6c-0.9,4.4-5.9,15-3.9,16.8s5.5,10.1,7.4,10.8s9-1.1,9.5,1.6s0,27.2,2.9,31.4c2.9,4.2,10.7,11.4,8.8,13.8
			S699.9,331,698.2,334s-38,30-38.7,31.7s-0.7,1.7-0.7,1.7s-3.2,12.9-5,14.3s-8.2-3.2-14.1,0.7c-5.9,3.9-5.9,3.9-5.9,3.9l-7.2,13
			c0,0,0,13.5-0.8,14.5c-0.7,1-12.5,11.9-12.5,11.9l-10.4,0.7l-4.3,4.9l-11.3-0.5"/>
		<path class="st2" d="M570.7,323l42.4,35.6c0,0,8.1,21.5,8.5,23.6s4.1,16.3,5,17.1"/>
		<path class="st2" d="M717,317.6c3.2-2,40.6-1.5,40.6-1.5s7.7-7.1,9.1-7.1c1.3,0,10.1,0.1,11.7-1.2s1.6-1.3,1.6-1.3l11.1-14.6
			c0,0,4.5-6.7,6-9s8.5-0.5,9.7-2.9s1.2-2.4,1.2-2.4l0,0c0,0-0.5-4.5,1.5-6s2-1.5,2-1.5s7.3-3.5,10-6.1s2.7-2.7,2.7-2.7
			s11.6-0.5,12.7-5.6c1.1-5.1,0-11.5,0-11.5s5.2,0,6.9-2.5s-0.4-8,0-8.7c0.9-1.5,8.5-6.5,8.8-7.1c0.3-0.5,0.3-0.5,0.3-0.5l0,0
			c0,0-4.3-1.6-6.4,0c-2.1,1.6-2.1,1.6-2.1,1.6s-2.3-0.9-2.1-2.3s5.2-6.6,8.1-7.3c2.9-0.7,5.5,1.5,6.3,1.5s0.8,0,0.8,0
			s3.5-3.7,5.9-4.5s4.4-2.1,5.3-4s8.4-0.4,9.2-1.6c0.8-1.2-7.6-24.3-7.6-27.1s3.5-15.8,3.5-15.8s7.7-15.1,7.7-17.9
			c0-2.8-7.3-6.4-7.7-11.1s2-13.5-2.1-19.5s17.5-13.2,17.5-13.2l31.5-1.2c0,0,2.8-2.9,2.9-4.1c0.1-1.2,9.3-12.1,10.7-13"/>
		<path class="st2" d="M798.7,296.6c0,0,11.6,8.8,12.6,10.4s9.7,15.4,11.7,15.6s26.8,2.6,27.2,2.4c0.9-0.4,17.3-4.9,17.3-4.9
			l28.2,1.5c0,0,5.2,6.4,6.7,5.9s8.5-9.6,11.6-9.1s9.8-0.8,13.3-3.2c3.5-2.3,13.3,0.5,15-1.1c1.7-1.5,13.7-9.2,17.5-8.7
			s3.3,0.4,3.7,0.5c0.5,0.2,0.5,0.2,0.5,0.2l0,0c0,0,19.9,6.2,21,5.1c1.1-1.2,1.1-1.2,1.1-1.2l1.5-8.6"/>
		<polygon class="st4" points="611.2,371.5 611.2,393.8 618.8,393.8 618.8,380.8 614.1,370.8 		"/>
		<path class="st2" d="M795.3,297.2c0,0,6,14.2,5.2,16.4s-4.1,25-3.5,30.2s-15,0-15,0s-31.6,1.1-33.8,9.8s-3.5,28.6-3.5,28.6
			l-12,5.6c0,0,1.2,12.1-2.8,12.9c-3.3,0.7-10.2-11-15.5-8.7c0,0-8.5,3.8-9.5,4.1c-1,0.3-10.2-2.2-11.8-0.8
			c-1.6,1.4-7.3,9.9-7.5,10.3s-5.4,4-4.8,6.9c0.5,2.9,6.3,7.8,6.5,8.8c0.1,1,3.2,13.7,1.9,15.9c-1.2,2.2-5,6.1-9.1,5.4"/>
		<path class="st2" d="M357.1,177.4c0,0,11-13.5,17.9-6.9c7,6.6,10.4,7.4,24.8,9.3c0,0,7.9,11.8,13,13.8c5.2,1.9,5.2,1.9,5.2,1.9
			s15.2,7.7,19.7,8.8s19.3,18.6,33.1,13.3c9.4-3.6-0.4-15.1,37.1-6c2.1,0.5,4.8,16.6,4.8,16.6"/>
		<path class="st2" d="M471.7,330.5c0,0-4.3-7-10.1-11.8c-5.8-4.7-5.8-4.7-5.8-4.7v-9c0,0,12.9-13.1,13.3-14.8
			c0.4-1.7-5.6-11-5.4-11.8c0.2-0.7,5.5-0.7,6.2-2.1s-6.7-7.9-8.2-8.6c-1.5-0.6-1.5-0.6-1.5-0.6s-5.6-12.9-5.6-14s10.1-17,10.1-17
			l5.6-9.4L470,218"/>
		<polygon class="st1" points="789.6,299.5 784.3,327.6 787,340.9 794,340.9 797.3,315.2 793.3,299.5 		"/>
		<polygon class="st1" points="790.8,349.3 790.8,363.9 795.3,370.3 797.3,361.1 800.6,354.6 797.3,349.3 		"/>
		<polygon class="st1" points="800.1,334.5 799.5,346.5 802,353.1 799.9,362.6 798.1,365.9 803.3,391.3 811.3,401.2 830.4,398.7 
			856.2,395.1 855.5,369.8 834,354.7 830.5,350.8 824.1,346.6 808.1,342.8 804,335.6 		"/>
		<path class="st2" d="M798.3,293.4c0,0,17.3-2.6,22.2-3.8c4.8-1.2,14.2,5.7,17,3.8s11.8-10.9,15.3-13.3c3.5-2.3,3.5-2.3,3.5-2.3
			l0,0c0,0,4.2-4.7,12-5.3c7.8-0.7,7.8-0.7,7.8-0.7l0,0c0,0,8.5-2.3,10.2-3.8s1.7-1.5,1.7-1.5l0,0l9-1c0,0-1.2-4.8,0-5.8
			s1.2-1,1.2-1l0.5-0.7c0,0,5-3.3,5.7-4.2c0.7-0.8,0.3-0.2,0.7-0.8s0.3-0.7,0.3-0.7s-0.3-4.8,0-5.5s0.5,0.2,0.3-0.7
			c-0.2-0.8-0.2-0.8-0.2-0.8s-4.5-5.2-4.8-5.7s-0.3-0.5-0.3-0.5v-0.8c0,0,0.3-2.7,3-2s2.7,0.7,2.7,0.7l6.8,5.3l1,0.7
			c0,0,10.2,6.3,10.5,8.2c0.3,1.8,0.3,1.8,0.3,1.8s-4.3,8.5-3.7,9.3c0.7,0.8,0.7,0.8,0.7,0.8s5.7,14.2,5.3,15.7s-0.3,1.5-0.3,1.5
			s7.2,10.8,7.5,12s-6.7,5-11.7,4.8s-5-0.2-5-0.2s-2.7,5.8-3.2,8.8s-7.7,8.2-8.3,10.7s0.5,7.3,0.5,7.3"/>
		<path class="st2" d="M613.4,359.5c0,0,10.4,9,10.7,10.3s2.5,27.4,2.5,27.4"/>
		<path class="st2" d="M613.4,358.8c0,0,16.4,9.4,17,11.1c0.6,1.8,0.6,1.8,0.6,1.8l3.8,13.1"/>
	</g>
	<g id="Layer_3">
		<path class="st2" d="M573.7,309.4c0,0,4.7,1.3,10.8,3.1c10.7,3.1,25.8,7.9,26.8,9.9c1.6,3.2,1.6,3.2,1.6,3.2s5,9.2,4.5,11
			c-1,3.9-1.5,6-1.5,6l9.8,10.3l-2.6,6.9l1.7,6.2"/>
		<line class="st2" x1="582.6" y1="332.9" x2="584.4" y2="312.4"/>
		<line class="st2" x1="591.7" y1="340.6" x2="593.5" y2="315.2"/>
		<path class="st2" d="M623.7,323.7c3.2,5.3,3.5,14.5,4.2,14.8l3.4,9.8l-5.6,4.5"/>
	</g>
	<path class="st2" d="M627.9,338.5c0,0,4.8-1.7,6.9-1.9s8.9,0.2,10.1,2.2s7.4,8.6,9.3,9.4c2,0.7,8.5,7.9,9.3,13.9l1.5,16.2v1.3
		c0,0-8.1,5.9-9.1,7.8c-1,1.8-1,1.8-1,1.8l0,0c0,0-2.9,10.2-4.2,12c-1.2,1.8-2.5,5.7-4.3,6.4c-1.8,0.7-12.9,6.5-11.7,8.3"/>
	<path class="st2" d="M653.7,391.6c0,0-7.9,2-8.7,5.6s0,10.3,0.1,11.2"/>
	<path class="st2" d="M560.6,466.4c0,0-16.4-20.3-18.4-26.1c-2-5.9,3.8-13.7,3.2-15.8c-0.6-2.2-6.7-19.1-9.8-20.3
		c-3.2-1.2-12.1-3.6-12.4-11.7s9.1-26.8,9.1-26.8"/>
	<polyline class="st2" points="518.4,312.5 516.6,333.6 524.5,336.4 	"/>
	<path class="st2" d="M516.6,477.8c0,0-6.1-10.3-5.2-12.2c0.9-1.9,13.9-8.6,15.5-10.9s1.6-6.1,0-5.2c-1.6,0.9-7.7,3.2-10.3,4
		s-4.6-0.5-4-4.2c0.6-3.6,0.6-3.6,0.6-3.6s4.6-6.4,3.5-8.4c-1.2-2-6.9-2.1-6.9-6s0-3.8,0-3.8s8.9-7.7,9.2-11.5s-6-5.9-9.2-8.5
		c-3.2-2.6-3.2-2.6-3.2-2.6s-2.9-6.1-4.2-9S501,393,501,393s-6.2-11.5-6-14.7c0.2-3.2,0.2-3.2,0.2-3.2s1.7-3.5,2-5.2
		c0.3-1.7-0.6,0,0.3-1.7c0.9-1.7-3.5-11.6-2.2-13.5s1.3-1.9,1.3-1.9l20-19.2c0.2-2.6,0.2-2.6,0.2-2.6"/>
	<path class="st2" d="M496.7,376.2c0,0,11-1.4,12.1,3.5s9,20.8,11.7,22s8.4,5.5,10,11s1.6,5.5,1.6,5.5s4.9,22.5,7.2,21.2
		c2.3-1.3,2.3-1.3,2.3-1.3"/>
	<path class="st2" d="M622.4,507.2c0,0,10.5-5.5,13.9-1.4c3.5,4,3.5,4,3.5,4s3.3,7.2,6.7,5.8c3.4-1.4,3.4-1.4,3.4-1.4l0,0
		c0,0-4-11.3,0-12.1c4-0.9,4-0.9,4-0.9s8.1,2.6,9,0c0.9-2.6-7-16.5-3.5-13c4.9,4.9,11.9,11.9,11.9,11.9s6.7,0.6,6.9-2.6
		s0.3-3.2,0.3-3.2s-10.4-6.9-10.4-8.7c0-1.7,0-1.7,0-1.7s6.4-7.8,5.6-12.1s-8-1.7-12-4.3c-4-2.6,2.3-13.7,2.3-13.7"/>
	<path class="st2" d="M677.4,499c0,0,2,11.5-0.3,12.7s-8.4,0.1-6.7,4.2c1.7,4.1,1.7,4.1,1.7,4.1s6.4,11.3,6.4,12.7
		c0,1.4,12.4,13.3,12.7,17.9s7.2,8.7,11.3,13.9c4,5.2,4,5.2,4,5.2s2,4.6,6.4,4.9s4.3,0.3,4.3,0.3s11.9-1.7,13.3-2.6
		c1.4-0.9,1.4-0.9,1.4-0.9s-2.6-4.6-5.5-6.4c-2.9-1.7-2.9-1.7-2.9-1.7s-6.5-5.5-7.6-8.7c-1.1-3.2-14.1-3.5-15-6.4
		c-0.9-2.9-2-11.9,0-14.7c2-2.9,2-2.9,2-2.9l7.1-3.2"/>
	<path class="st2" d="M670.2,517.3c0,0-7.4,2.5-5.9,5s4.5,5.8,4.3,9s-0.3,3.3-0.3,3.3s4.8,7.5,6.8,8s2,0.5,2,0.5s7.3,9.8,3.8,10.3
		s-16.3-11.8-17.8-9.5s-1.5,2.3-1.5,2.3s10.5,4.8,11,7.3c0.5,2.5,0.5,2.5,0.5,2.5s-9.8-4-11.5-1.5s4.3,14.3,4.3,14.3"/>
	<path class="st2" d="M847.3,230c0,0,12.2,7.8,16.6,7.5c4.3-0.3,16,0.8,17.7,0c1.6-0.8,1.6-0.8,1.6-0.8s16-8.4,19-4.9s3,3.5,3,3.5
		l2.6,3"/>
	<path class="st2" d="M847.3,284.8c0,0,1.9,8.9,4.6,10.1c2.7,1.2,2.7,1.2,2.7,1.2s8.2,0.7,9.3,3.5c1.2,2.8,0.7,4.8,2.4,6
		c1.7,1.2,1.7,1.2,1.7,1.2s7,8.4,6,13.5"/>
	<path class="st2" d="M882.3,269.9c0,0-2,8-1.5,10.6s2.5,6.8,4,10.5c1.5,3.7,1.5,3.7,1.5,3.7s9,19.3,20.1,20.7"/>
	<path class="st2" d="M883.5,287.9c0,0-1,5.8-2.8,6.8s-11.7,10.2-11.9,11.5c-0.2,1.3-0.2,1.3-0.2,1.3"/>
	<circle class="st2" cx="903.3" cy="283.5" r="3.9"/>
	<path class="st2" d="M884.2,289.4c0,0,13.7-1.8,16.5-3"/>
	<path class="st2" d="M903.3,278.8c0,0-1-6.8,0-9c1-2.2,14.5-7.1,17.7-7.6"/>
	<path class="st2" d="M907.3,283.5c0,0,4.9,0.2,7.6,0c2.7-0.2,12-3.9,12-3.9"/>
	<circle class="st2" cx="794.8" cy="294.4" r="4.4"/>
	<path class="st2" d="M543.4,472.3c0,0-4.6,10.7,0,11.1c4.6,0.3,9.1,5.3,14.7,5.7s5.6,0.3,5.6,0.3s11.3-8.7,14.3-8.5s3,0.2,3,0.2
		s20.5-4.7,24.2-6.8"/>
	<path class="st2" d="M497.7,489.2c0,0,5.6,22.8,7,26.6c1.3,3.8,1.3,3.8,1.3,3.8s0.2,15.6,1.5,17.3s3.2,0,3.2,0s2-11.3,5-10.9
		s3,0.3,3,0.3s1,8.3,3.3,9c2.3,0.7,2.3,0.7,2.3,0.7s13.7,10.3,16.3,11c2.7,0.7,2.7,0.7,2.7,0.7s10,12.3,12,13.7c2,1.3,2,1.3,2,1.3
		s24.7,17.3,32,17.7"/>
	<path class="st2" d="M634.1,646c0,0-29.4-18.7-33.1-17.3c-3.7,1.3-12,6.7-14.7,6.3c-2.7-0.3-28-0.6-28-24c0-4.3,5.3-10.7-1.3-12.7
		s-21.3,7.3-27.3,0c-6-7.3-6-7.3-6-7.3s-8.3-4-7.7-7c0.4-1.7-0.4-7.6-1.3-13c-0.7-4.2-1.6-8-2-9c-1-2.3-5.2-25.1-5.2-25.1"/>
	<path class="st2" d="M515,573c0,0-17.9,0.3-17.3,5.7c0.6,5.3-2,14-2.4,16c-0.3,2-9,11.3-10,15.3s17.3-1.7,15.7-4s-3.3-4.5-3.3-4.5"
		/>
	<path class="st2" d="M516.5,585.8c0,0-5.8,5.6-3.1,8.2c2.7,2.7,2.7,2.7,2.7,2.7s8.3,21.6,6.7,23.1c-1.7,1.5-11.7,10.2-10,13.9
		c1.7,3.7,1.7,3.7,1.7,3.7s6.4,3.7,8.6,6c2.1,2.3,2.1,2.3,2.1,2.3s5,12,4.7,15c-0.3,3,6.3,10.3,6.3,13c0,2.7-3.3,10,0,12.3
		s3.3,2.3,3.3,2.3l14.6,19.8"/>
	<path class="st2" d="M616.6,343.3c0,0,4.6-10.8,5.1-13.4s0.5-2.6,0.5-2.6s2.1-6,2-6.5c-0.1-0.5-0.1-0.5-0.1-0.5s-5.5-13.3-9-16.3
		s0.5-6.9,0.5-6.9s-1.3-3.9-2-7.2c-0.8-3.3-0.8-3.3-0.8-3.3s-2.3-5.2-2.3-7.2s0.2-0.7,0-2c-0.2-1.3-3.5-12.7-3.5-12.7"/>
	<path class="st2" d="M663.6,362.1c0,0-0.7-21.5,1.5-25.7s2.2-4.1,2.2-4.1s-5.2-9.4-11.7-9.6s-9.5-5.3-9.1-7.9
		c0.4-2.6,0.4-2.6,0.4-2.6l-9.2-7.1c0,0-5.2,0.7-5.2,2.4c0,1.7,0,1.7,0,1.7s5.4,12.2,6.5,12.5c1.1,0.3,1.1,0.3,1.1,0.3
		s3.2,4.8,4.5,8s1.2,3.2,1.2,3.2l-0.9,5.7"/>
	<line class="st2" x1="632.5" y1="307.4" x2="615" y2="304.1"/>
</g>
<g id="Layer_2_1_">
	<path class="st2" d="M670,202.9c0,0-10,10.6-10,11.6c0,1.1-1.1,5.7,1.1,5.7s10.8-3.5,11.1,0c0.3,3.5,2,22.5,4.1,22.4"/>
	<line class="st2" x1="601.5" y1="400.4" x2="620" y2="418.1"/>
	<path class="st2" d="M626.6,403.2c2.2,4.9,10.9,18.1,13.1,18.7s21.4,6.6,22.7,9.4c1.4,2.8,17.2,9.7,18.3,10.8"/>
</g>
</svg>
